<?xml version="1.0" encoding="utf-8"?>
<!-- Generator: Adobe Illustrator 22.1.0, SVG Export Plug-In . SVG Version: 6.00 Build 0)  -->
<svg version="1.1" xmlns="http://www.w3.org/2000/svg"  x="0px" y="0px"
	 viewBox="0 0 50 50" style="enable-background:new 0 0 50 50;" xml:space="preserve">
<style type="text/css">
	.st0{fill:#BCD4E8;}
	.st1{fill:#EDF5F9;}
	.st2{fill:#904B0C;}
	.st3{fill:#B4772D;}
	.st4{fill:#63372C;}
	.st5{fill:#A9765E;}
	.st6{fill:#CEB080;}
	.st7{fill:#BE9753;}
	.st8{fill:#EFEFDE;}
	.st9{fill:#DBD3B4;}
	.st10{fill:#450000;}
	.st11{fill:#211A18;}
	.st12{fill:#322926;}
	.st13{fill:#38312F;}
	.st14{fill:#E0D9BE;}
	.st15{fill:#602319;}
	.st16{fill:#9A6A4F;}
	.st17{fill:#9E5E32;}
	.st18{fill:#935227;}
	.st19{fill:#77331E;}
	.st20{fill:none;}
	.st21{fill-rule:evenodd;clip-rule:evenodd;fill:#9E654C;}
	.st22{fill:#662618;}
	.st23{fill:#7C3927;}
	.st24{fill:#AF7D6B;}
	.st25{fill:#714C39;}
	.st26{fill:#1C1C1C;}
	.st27{fill:#DEA855;}
	.st28{fill:#B16A22;}
	.st29{fill:#D6A054;}
	.st30{fill:#C98F4B;}
	.st31{fill:#AA5F1B;}
	.st32{fill:#995319;}
	.st33{fill:#141110;}
	.st34{fill:#FFCF26;}
	.st35{fill:#F9C319;}
	.st36{fill:#FFE180;}
	.st37{fill:#600C1A;}
	.st38{fill:#600A1C;}
	.st39{fill:#51071C;}
	.st40{fill:#680F1B;}
	.st41{fill:#282225;}
	.st42{fill:#4C051D;}
	.st43{fill:#510818;}
	.st44{fill:#091328;}
	.st45{fill:#181F32;}
	.st46{fill:#30405A;}
	.st47{fill:#99918E;}
	.st48{fill:#3E3A37;}
	.st49{fill:#3C2F26;}
	.st50{fill:#1B324F;}
	.st51{fill:#38567A;}
	.st52{fill:#303030;}
	.st53{fill:#444444;}
	.st54{fill:#292929;}
	.st55{fill:#1C1C1B;}
	.st56{fill:#864D22;}
	.st57{fill:#B09262;}
	.st58{fill:#E66B1B;}
	.st59{fill:#CEA47A;}
	.st60{fill:#A57B55;}
	.st61{fill:#916543;}
	.st62{fill:#AD825E;}
	.st63{fill-rule:evenodd;clip-rule:evenodd;fill:#95643E;}
	.st64{fill:#B4A187;}
	.st65{fill:#54412C;}
	.st66{fill:#413329;}
	.st67{fill:#7E6653;}
	.st68{fill:#5B2B20;}
	.st69{fill:#512617;}
	.st70{fill:#753F32;}
	.st71{fill:#663426;}
	.st72{fill:#5B2A1E;}
	.st73{fill:#6D3C31;}
	.st74{fill:#544B4E;}
	.st75{fill:#8C513F;}
	.st76{fill:#383133;}
	.st77{fill:#A56F4A;}
	.st78{fill:#C69675;}
	.st79{fill:#4A1906;}
	.st80{fill:#FFE5B5;}
	.st81{fill:#EFE6D8;}
	.st82{fill:#392E31;}
	.st83{fill:#723433;}
	.st84{fill:#5A1E1B;}
	.st85{fill:#890215;}
	.st86{fill:#412320;}
	.st87{fill:#8E101C;}
	.st88{fill:#961427;}
	.st89{fill:#585252;}
	.st90{fill:#474242;}
	.st91{fill:#332D2A;}
	.st92{fill:#5E5C5C;}
	.st93{fill:#B37F54;}
	.st94{fill:#848280;}
	.st95{fill:#3C3A38;}
	.st96{fill:#696867;}
	.st97{fill:#514E4B;}
	.st98{fill:#996350;}
	.st99{fill:#7B5F4E;}
	.st100{fill:#AA8174;}
	.st101{fill:#68403E;}
	.st102{fill:#01C1B7;}
	.st103{fill:#00A797;}
	.st104{fill:#4BD0C8;}
	.st105{fill:#9F8159;}
	.st106{fill:#032415;}
	.st107{fill:#AA9985;}
	.st108{fill:#EED7B0;}
	.st109{fill:#8CDBD3;}
	.st110{fill:#03937E;}
	.st111{fill:#00B29F;}
	.st112{fill:#61C9BC;}
	.st113{fill:#81D3C9;}
	.st114{fill:#158452;}
	.st115{fill:#0E6A41;}
	.st116{fill:#85492E;}
	.st117{fill:#0F4F30;}
	.st118{fill:#228252;}
	.st119{fill:#2D9B64;}
	.st120{fill:#915151;}
	.st121{fill:#724320;}
	.st122{fill:#B27474;}
	.st123{fill:#683E29;}
	.st124{fill:#2A221B;}
	.st125{fill:#382E28;}
	.st126{fill:#1E1813;}
	.st127{fill:#FBBD81;}
	.st128{fill:#B3E5D9;}
	.st129{fill:#91C9BA;}
	.st130{fill:#D3B136;}
	.st131{fill:#7A493C;}
	.st132{fill:#9E6447;}
	.st133{fill:#E5C851;}
	.st134{fill:#95D1BE;}
	.st135{fill:#A5DBCC;}
	.st136{fill:#E5233A;}
	.st137{fill:#32272C;}
	.st138{fill:#E00A24;}
	.st139{fill:#C6142A;}
	.st140{fill:#C89576;}
	.st141{fill:#BE9B82;}
	.st142{fill:#393744;}
	.st143{fill:#474751;}
	.st144{fill:#A3774F;}
	.st145{fill:#B28967;}
	.st146{fill:#564F53;}
	.st147{fill:#474145;}
	.st148{fill:#686265;}
	.st149{fill:#089499;}
	.st150{fill:#534748;}
	.st151{fill:#322D2F;}
	.st152{fill:#EAD2A9;}
	.st153{fill:#EADBCC;}
	.st154{fill:#D6C2B0;}
	.st155{fill:#CEB889;}
	.st156{fill:#DCC28B;}
	.st157{fill:#D1B178;}
	.st158{fill:#E2D3C5;}
	.st159{fill:#50352B;}
	.st160{fill:#EBE1CD;}
	.st161{fill:#6A5246;}
	.st162{fill:#D8B48F;}
	.st163{fill:#E5C6A8;}
	.st164{fill:#D3A584;}
	.st165{fill:#D8B9A7;}
	.st166{fill:#AF6A4A;}
	.st167{fill:#E8D5C7;}
	.st168{fill:#BF8C6A;}
	.st169{fill:#E2E0D7;}
	.st170{fill:#A36E4E;}
	.st171{fill:#2D2D2D;}
	.st172{fill:#3F3F3F;}
	.st173{fill:#D4AD8C;}
	.st174{fill:#282827;}
	.st175{fill:#EEE7E1;}
	.st176{fill:#1C1B1A;}
	.st177{fill:#111111;}
	.st178{fill:#D9E021;}
	.st179{fill:#C8B389;}
	.st180{fill:#BFA847;}
	.st181{fill:#FCEE21;}
	.st182{fill:#FFFFFF;}
	.st183{fill:#E74D7E;}
	.st184{fill:#D7356C;}
	.st185{fill:#DFC4B3;}
	.st186{fill:#DC0D5D;}
	.st187{fill:#FFD8A9;}
	.st188{fill:#BB7A4A;}
	.st189{fill:#010101;}
	.st190{fill:#262626;}
	.st191{fill:#CBAE82;}
	.st192{fill:#F9604A;}
	.st193{fill:#BD9B64;}
	.st194{fill:#CDADA0;}
	.st195{fill:#E24D3D;}
	.st196{fill:#C4976B;}
	.st197{fill:#C7BAA6;}
	.st198{fill:#938885;}
	.st199{fill:#A47B57;}
	.st200{fill:#393722;}
	.st201{fill:#282715;}
	.st202{fill:#E3C197;}
	.st203{fill:#49462E;}
	.st204{fill:#242224;}
	.st205{fill:#565640;}
	.st206{fill:#C19A55;}
	.st207{fill:#DDC9B8;}
	.st208{fill:#E4E3FF;}
	.st209{fill:#2B2748;}
	.st210{fill:#110F15;}
	.st211{fill:#FEFDFF;}
	.st212{fill:#D9BEAA;}
	.st213{fill:#772C17;}
	.st214{fill:#8E4C42;}
	.st215{fill:#CEB29F;}
	.st216{fill:#BC9D84;}
	.st217{fill:#E8CFBF;}
	.st218{fill:#C5D2DA;}
	.st219{fill:#BB8352;}
	.st220{fill:#98AFB7;}
	.st221{fill:#DDC5B0;}
	.st222{fill:#B1BFC4;}
	.st223{fill:#D5DDE4;}
	.st224{fill:#829AA8;}
	.st225{fill:#D8E4E2;}
	.st226{fill:#2D303D;}
	.st227{fill:#EE3849;}
	.st228{fill:#353845;}
	.st229{fill:#101322;}
	.st230{fill:#FFFEFB;}
	.st231{fill:#0F101F;}
	.st232{fill:#454751;}
	.st233{fill:#FC884C;}
	.st234{fill:#24AFA3;}
	.st235{fill:#149683;}
	.st236{fill:#3CBAA8;}
	.st237{fill:#757575;}
	.st238{fill:#D3D3D5;}
	.st239{fill:#1E1C1C;}
	.st240{fill:#5C3A2B;}
	.st241{fill:#50D8C8;}
	.st242{fill:#307D75;}
	.st243{fill:#726867;}
	.st244{fill:#29222A;}
	.st245{fill:#B3B2AC;}
	.st246{fill:#70E5DC;}
	.st247{fill-rule:evenodd;clip-rule:evenodd;fill:#67D2CE;}
	.st248{fill:#D8C5A7;}
	.st249{fill:#9B6935;}
	.st250{fill:#A77739;}
	.st251{fill:#B59F7F;}
	.st252{fill:#DBA250;}
	.st253{fill:#B5591A;}
	.st254{fill:#D1D0CF;}
	.st255{fill:#E7B874;}
	.st256{fill:#D3D1D1;}
	.st257{fill:#7E7C7A;}
	.st258{fill:#EFEFEF;}
	.st259{fill:#A5A29E;}
	.st260{fill:#C9E5C3;}
	.st261{fill:#A1A2A5;}
	.st262{fill:#662D91;}
	.st263{fill:#93278F;}
	.st264{fill:#353334;}
	.st265{fill:#EF56C0;}
	.st266{fill:#FF76D5;}
	.st267{fill:#F98AE9;}
	.st268{fill:#DC147F;}
	.st269{fill:#F72D97;}
	.st270{fill:#CFCD50;}
	.st271{fill:#E9E296;}
	.st272{fill:#D7DB3F;}
	.st273{fill:#DCDE5B;}
	.st274{fill:#E9E5A0;}
	.st275{fill:#F2EDB8;}
	.st276{fill:#DDD494;}
	.st277{fill:none;stroke:#F4E6D7;stroke-width:0.4246;stroke-miterlimit:10;}
	.st278{fill:#D0A55B;}
	.st279{fill:#DEBF89;}
	.st280{fill:#C3925B;}
	.st281{fill:#CEA77F;}
	.st282{fill:#F4E6D7;}
	.st283{fill:#AD6759;}
	.st284{fill:#CEAC82;}
	.st285{fill:#AF6C61;}
	.st286{fill:#C1817A;}
	.st287{fill:#1B1214;}
	.st288{fill:#CAB477;}
	.st289{fill:#DDC899;}
	.st290{fill:#F2E1C0;}
	.st291{fill:#CEA984;}
	.st292{fill:#E6D5C4;}
	.st293{fill:#C2825E;}
	.st294{fill:#AAB7BF;}
	.st295{fill:#8BA7B7;}
	.st296{fill:#E0BFA2;}
	.st297{fill:#658AA8;}
	.st298{fill:#CC9579;}
	.st299{fill:#BBCCD4;}
	.st300{fill:#DAE1E5;}
	.st301{fill:#DED0AF;}
	.st302{fill:#B59868;}
	.st303{fill:#98B4C3;}
	.st304{fill:#83A5B5;}
	.st305{fill:#B4CBD1;}
	.st306{fill:#A5C1CE;}
	.st307{fill:#9AB9C1;}
	.st308{fill:#8DA7B2;}
	.st309{fill:#4B7184;}
	.st310{fill:#DDDDDD;}
	.st311{fill:#898989;}
	.st312{fill:#CECECE;}
	.st313{fill:#C3D4D8;}
	.st314{fill:#FF802E;}
	.st315{fill:#2F3439;}
	.st316{fill:#F25F16;}
	.st317{fill:#17181B;}
	.st318{fill:#EFEEE9;}
	.st319{fill:#0F1010;}
	.st320{fill:#F3F0F7;}
	.st321{fill:#A7A9AC;}
	.st322{fill:#B7B7B7;}
	.st323{fill:#3A3A3B;}
	.st324{fill:#C6C6C6;}
	.st325{fill:#C93535;}
	.st326{fill:#F6F5FA;}
	.st327{fill:#E3E6EB;}
	.st328{fill:#B23030;}
	.st329{fill:#A08BC1;}
	.st330{fill:#F1EFF0;}
	.st331{fill:#9075B2;}
	.st332{fill:#937DB7;}
	.st333{fill:#D2BCAA;}
	.st334{fill:#D8C5B6;}
	.st335{fill:#E2D0C3;}
	.st336{fill:url(#SVGID_1_);}
	.st337{fill:url(#SVGID_2_);}
	.st338{fill:url(#SVGID_3_);}
	.st339{fill:url(#SVGID_4_);}
	.st340{fill:url(#SVGID_5_);}
	.st341{fill:url(#SVGID_6_);}
	.st342{fill:#CBD0D1;}
</style>
<g id="Layer_2">
</g>
<g id="Layer_1">
	<path class="st342" d="M25,0C11.2,0,0,11.2,0,25c0,8.7,4.7,16.9,12.2,21.4l0.4,0.2c0,0,0.1,0.1,0.1,0.1l0.1,0.1
		c0.3,0.2,0.6,0.3,0.9,0.5l0.1,0.1c0.1,0,0.1,0.1,0.2,0.1c0.4,0.2,0.9,0.4,1.4,0.6l0.2,0.1c0.4,0.2,0.8,0.3,1.3,0.5l0.3,0.1
		c0.5,0.2,1,0.3,1.4,0.4c1,0.3,2,0.5,3,0.6l0.3,0c0.4,0,0.8,0.1,1.2,0.1l0.4,0c0.6,0,1,0,1.5,0s1,0,1.5,0l0.4,0
		c0.4,0,0.8-0.1,1.2-0.1l0.3,0c1-0.1,2.1-0.3,3.1-0.6c0.5-0.1,0.9-0.3,1.4-0.4l0.3-0.1c0.4-0.1,0.9-0.3,1.3-0.5l0.2-0.1
		c0.5-0.2,0.9-0.4,1.4-0.6c0.1,0,0.1-0.1,0.2-0.1l0.1-0.1c0.3-0.2,0.6-0.3,0.9-0.5l0.1-0.1c0,0,0.1,0,0.1-0.1l0.4-0.2l0,0
		C45.3,41.9,50,33.7,50,25C50,11.2,38.8,0,25,0z M29.6,24.6c3.1-1.7,5-4.9,5-8.5c0-5.3-4.3-9.7-9.7-9.7s-9.7,4.3-9.7,9.7
		c0,3.5,2,6.8,5,8.5c-4.8,1.3-8.3,5.7-8.3,10.8v9.2C5.5,40.2,1.6,32.9,1.6,25C1.6,12.1,12.1,1.6,25,1.6S48.4,12.1,48.4,25
		c0,7.9-3.9,15.2-10.5,19.6v-9.2C37.9,30.3,34.5,25.9,29.6,24.6z M25,8c4.5,0,8.1,3.6,8.1,8.1s-3.6,8.1-8.1,8.1s-8.1-3.6-8.1-8.1
		S20.5,8,25,8z M35.1,46.2c-0.4,0.2-0.8,0.4-1.2,0.5l-0.3,0.1c-0.4,0.1-0.7,0.3-1.2,0.4l-0.1,0c-0.9,0.3-1.8,0.5-2.8,0.7l-0.1,0
		c-0.4,0.1-0.8,0.1-1.2,0.2l-0.3,0c-0.4,0-0.7,0.1-1.1,0.1l-0.4,0c-0.9,0.1-1.9,0.1-2.8,0l-0.4,0c-0.4,0-0.7-0.1-1.1-0.1l-0.3,0
		c-0.4-0.1-0.8-0.1-1.2-0.2l-0.1,0c-0.9-0.2-1.9-0.4-2.8-0.7l-0.2-0.1c-0.4-0.1-0.7-0.3-1.1-0.4l-0.3-0.1c-0.4-0.2-0.8-0.3-1.2-0.5
		l-0.1,0.2l0.1-0.3c-0.4-0.2-0.8-0.4-1.2-0.6l0,0c0-0.1,0-0.1,0-0.2v-9.9c0-5.3,4.3-9.6,9.6-9.6h3.5c5.3,0,9.6,4.3,9.6,9.6v9.9
		c0,0.1,0,0.1,0,0.2l0,0C35.9,45.7,35.5,45.9,35.1,46.2l0.2,0.2L35.1,46.2z"/>
</g>
</svg>
